<?xml version="1.0" encoding="UTF-8"?>
<!-- Created with Inkscape (http://www.inkscape.org/) -->
<svg id="svg2" width="256.35" height="276.84" version="1.1" viewBox="0 0 256.35 276.84" xmlns="http://www.w3.org/2000/svg" xmlns:cc="http://creativecommons.org/ns#" xmlns:dc="http://purl.org/dc/elements/1.1/" xmlns:osb="http://www.openswatchbook.org/uri/2009/osb" xmlns:rdf="http://www.w3.org/1999/02/22-rdf-syntax-ns#">
 <defs id="defs4">
  <clipPath id="clipPath5136">
   <path id="path5138" d="m337.86 673.43 59.286-130c7.6788 48.279 35.644 70.738 72.857 81.429z" fill="none" stroke="#e20000" stroke-linecap="round" stroke-linejoin="round" stroke-width="5"/>
  </clipPath>
  <clipPath id="clipPath5140">
   <path id="path5142" d="m337.86 673.43 59.286-130c7.6788 48.279 35.644 70.738 72.857 81.429z" fill="none" stroke="#e20000" stroke-linecap="round" stroke-linejoin="round" stroke-width="5"/>
  </clipPath>
  <clipPath id="clipPath5144">
   <path id="path5146" d="m337.86 673.43 59.286-130c7.6788 48.279 35.644 70.738 72.857 81.429z" fill="none" stroke="#e20000" stroke-linecap="round" stroke-linejoin="round" stroke-width="5"/>
  </clipPath>
  <clipPath id="clipPath5148">
   <path id="path5150" d="m337.86 673.43 59.286-130c7.6788 48.279 35.644 70.738 72.857 81.429z" fill="none" stroke="#e20000" stroke-linecap="round" stroke-linejoin="round" stroke-width="5"/>
  </clipPath>
  <clipPath id="clipPath5152">
   <path id="path5154" d="m337.86 673.43 59.286-130c7.6788 48.279 35.644 70.738 72.857 81.429z" fill="none" stroke="#e20000" stroke-linecap="round" stroke-linejoin="round" stroke-width="5"/>
  </clipPath>
  <clipPath id="clipPath5156">
   <path id="path5158" d="m337.86 673.43 59.286-130c7.6788 48.279 35.644 70.738 72.857 81.429z" fill="none" stroke="#e20000" stroke-linecap="round" stroke-linejoin="round" stroke-width="5"/>
  </clipPath>
 </defs>
 <metadata id="metadata7">
  <rdf:RDF>
   <cc:Work rdf:about="">
    <dc:format>image/svg+xml</dc:format>
    <dc:type rdf:resource="http://purl.org/dc/dcmitype/StillImage"/>
    <dc:title/>
   </cc:Work>
  </rdf:RDF>
 </metadata>
 <g id="layer1" transform="translate(-169.61 -330.18)">
  <g id="g5938" stroke="#e20000" stroke-linecap="round" stroke-linejoin="round">
   <g id="g5268">
    <g id="g4938" fill="none" stroke-width="5">
     <path id="path4909" d="m193.57 557.36 59.286-130c7.6788 48.279 35.644 70.738 72.857 81.429z"/>
     <path id="path4911" d="m192.86 557.36c-14.775 8.9891 0.83557 31.641-15.714 42.143"/>
     <path id="path4913" d="m252.81 427.36c40.55 11.574 66.061 36.965 72.813 81.384"/>
    </g>
    <g id="g5160" transform="translate(-143.57 -115)" fill="#db0000" fill-rule="evenodd" stroke-width="15">
     <path id="path4943" d="m338.58 597.08 26.76 101.29" clip-path="url(#clipPath5156)"/>
     <path id="path4943-6" d="m356.98 590.29 26.76 101.29" clip-path="url(#clipPath5152)"/>
     <path id="path4943-1" d="m374.48 577.79 26.76 101.29" clip-path="url(#clipPath5148)"/>
     <path id="path4943-8" d="m389.83 556.72 26.76 101.29" clip-path="url(#clipPath5144)"/>
     <path id="path4943-7" d="m411.26 557.07 26.76 101.29" clip-path="url(#clipPath5140)"/>
     <path id="path4943-9" d="m438.41 579.57 26.76 101.29" clip-path="url(#clipPath5136)"/>
    </g>
   </g>
   <g fill="none" stroke-width="3">
    <path id="path5168" d="m281.58 471.28 47.501-63.088"/>
    <path id="path5172" d="m270.94 446.44c7.8492-28.357-13.736-63.7-35.322-70.276"/>
    <path id="path5174" d="m304.82 487.7c18.243-14.891 38.914-13.588 48.407-8.3187 31.804 18.997-19.142 24.238-17.823 15.913 4.7006-26.402 61.778-0.71307 64.073 13.276"/>
    <path id="path5176" d="m280.28 390.16c4.4674 2.9509 8.6718 6.9876 12.23 13.69 1.6226-4.5745 3.5034-8.5093 6.8362-8.8468-4.1208-8.0698-8.5312-9.8993-14.046-11.863-2.8447 1.5172-4.8794 3.6035-5.0209 7.02z"/>
    <path id="path5178" d="m274.11 346.99c5.5081-1.1537 10.277 0.11111 14.795 2.1989-1.6731-3.2025-2.2927-6.1804-0.23248-8.5869-6.6301-5.186-11.96-4.6007-16.798-1.8328-0.28542 3.0076 0.0429 5.856 2.2353 8.2207z"/>
    <path id="path5180" d="m413.66 458.39c-2.6171 1.1021-4.6044 2.8733-4.5457 6.8185 1.9062 0.99317 3.8249 2.0993 6.0609 6.0609 0.43297-2.6748 1.4918-5.0695 4.2932-5.7452-0.56686-2.6281-1.7417-5.171-5.8084-7.1342z"/>
    <path id="path5182" d="m338.63 442.05c-1.9967 6.5791 0.44319 10.645 2.5279 13.401 4.084-5.2438 11.974-7.5894 21.133-9.2256-6.0642-1.2863-8.9302-5.3708-9.707-9.7112-5.3846 0.91977-11.491 2.3044-13.954 5.5354z"/>
    <path id="path5178-2" d="m373.09 517.62c3.0663 0.78626 5.1589 2.6094 6.92 4.7855-0.0487-2.0318 0.37852-3.6886 2.0161-4.3912-2.0575-4.2644-4.8926-5.2932-8.0218-5.0983-0.89127 1.4469-1.4333 2.966-0.91436 4.704z"/>
    <path id="path5180-0" d="m379.51 469.64c-0.0773 2.8386 0.71488 5.3801 4.3321 6.9562 1.6918-1.3257 3.4917-2.6162 8.0232-3.0162-2.2571-1.4992-4.0006-3.4526-3.459-6.2829-2.6275-0.56928-5.4287-0.54972-8.8963 2.3429z"/>
   </g>
   <g id="g5224" fill="#db0000" stroke-width="3">
    <path id="path5214" d="m331.12 377.55-6.0555-6.9006-9.1175 1.0763 4.6916-7.8915-3.8411-8.3387 8.9551 2.0234 6.7436-6.2299 0.84288 9.142 8.0088 4.4884-8.4341 3.6267z" opacity=".99"/>
    <path id="path5220" d="m370.22 411.93-10.746-10.406-14.664 2.9531 6.5757-13.436-7.34-13.034 14.81 2.1021 10.128-11.008 2.5773 14.735 13.599 6.2302-13.217 7.0044z" opacity=".99"/>
    <path id="path5222" d="m395.47 449.3-7.4803-3.7888-7.3618 4.0142 1.2918-8.285-6.0926-5.7611 8.2787-1.3316 3.5964-7.5747 3.8247 7.462 8.3153 1.0796-5.9149 5.9434z" opacity=".99"/>
   </g>
  </g>
 </g>
</svg>
