<?xml version="1.0" encoding="UTF-8"?>
<!-- Created with Inkscape (http://www.inkscape.org/) -->
<svg id="svg8" width="39.556mm" height="39.556mm" version="1.1" viewBox="0 0 39.556 39.556" xmlns="http://www.w3.org/2000/svg" xmlns:cc="http://creativecommons.org/ns#" xmlns:dc="http://purl.org/dc/elements/1.1/" xmlns:rdf="http://www.w3.org/1999/02/22-rdf-syntax-ns#">
 <metadata id="metadata5">
  <rdf:RDF>
   <cc:Work rdf:about="">
    <dc:format>image/svg+xml</dc:format>
    <dc:type rdf:resource="http://purl.org/dc/dcmitype/StillImage"/>
    <dc:title/>
   </cc:Work>
  </rdf:RDF>
 </metadata>
 <g id="layer1" transform="translate(-97.687 -77.705)">
  <path id="rect815" transform="scale(.26458)" d="m372.99 293.69c-2.0938 0-3.7793 1.6854-3.7793 3.7793v52.076h25.617v-27.752c0-1.3763 1.1081-2.4844 2.4844-2.4844h27.752v-25.619zm89.871 0v25.619h27.752c1.3762 0 2.4824 1.1081 2.4824 2.4844v27.752h25.617v-52.076c0-2.0939-1.6854-3.7793-3.7793-3.7793zm-93.65 93.65v52.072c0 2.0939 1.6854 3.7793 3.7793 3.7793h52.074v-25.615h-27.752c-1.3763 0-2.4844-1.1081-2.4844-2.4844v-27.752zm123.88 0v27.752c0 1.3763-1.1062 2.4844-2.4824 2.4844h-27.752v25.615h52.072c2.0939 0 3.7793-1.6854 3.7793-3.7793v-52.072z" fill="#7b6761" opacity=".98"/>
 </g>
</svg>
