<?xml version="1.0" encoding="UTF-8"?>
<!-- Created with Inkscape (http://www.inkscape.org/) -->
<svg id="svg8" width="10.202mm" height="10.301mm" version="1.1" viewBox="0 0 10.202 10.301" xmlns="http://www.w3.org/2000/svg" xmlns:cc="http://creativecommons.org/ns#" xmlns:dc="http://purl.org/dc/elements/1.1/" xmlns:rdf="http://www.w3.org/1999/02/22-rdf-syntax-ns#">
 <metadata id="metadata5">
  <rdf:RDF>
   <cc:Work rdf:about="">
    <dc:format>image/svg+xml</dc:format>
    <dc:type rdf:resource="http://purl.org/dc/dcmitype/StillImage"/>
    <dc:title/>
   </cc:Work>
  </rdf:RDF>
 </metadata>
 <g id="layer1" transform="translate(-81.254 -129.38)">
  <g id="g889" stroke="#000">
   <path id="path867" d="m87.105 129.49-1.7756 0.0584c-0.08173 0.0205-0.09774 0.10109-0.11007 0.18448l-0.05374 1.0775c-0.26311 0.0864-0.51636 0.20038-0.75551 0.34003l-0.83923-0.678c-0.07243-0.043-0.14517-0.0817-0.21291-0.0315l-1.1591 1.1922c-0.05014 0.0677-0.06471 0.23462-0.01447 0.30231l0.72037 0.79788c-0.12724 0.24637-0.22806 0.50551-0.30076 0.77309l-1.0764 0.11265c-0.08162 0.0208-0.16068 0.0443-0.17312 0.12764l0.01241 1.6666c0.01273 0.0833 0.11602 0.21498 0.19947 0.22685l1.0718 0.0506c0.07609 0.2486 0.17667 0.48904 0.30024 0.71778l-0.70952 0.80719c-0.04942 0.0682-0.03083 0.23016 0.01963 0.29766l1.1679 1.1679c0.06749 0.0505 0.22963 0.0694 0.29766 0.0196l0.80047-0.70951c0.22928 0.12477 0.47042 0.22638 0.71985 0.30334l0.0553 1.0692c0.01228 0.0833 0.14355 0.18676 0.22686 0.19947l1.6702 0.0119c0.0833-0.0127 0.10747-0.0913 0.12764-0.17311l0.10232-1.0707c0.26902-0.0726 0.52956-0.17358 0.77721-0.30127l0.80615 0.71262c0.06821 0.0494 0.2343 0.0375 0.30179-0.0129l1.1844-1.1519c0.05047-0.0675 0.01201-0.14042-0.03101-0.21291l-0.67748-0.83974c0.15573-0.26299 0.28025-0.63774 0.37104-0.92958l1.0635-0.23963c0.07594-0.0364 0.14834-0.0755 0.14418-0.15968l-0.01174-1.6853c-0.02053-0.0817-0.1011-0.0977-0.18448-0.11007l-1.0647-0.16239c-0.08669-0.24696-0.19782-0.48465-0.33176-0.70952l0.64699-0.87488c0.04299-0.0724 0.08167-0.14518 0.03152-0.21291l-1.3069-1.2025c-0.07232-0.0433-0.14108 2e-3 -0.20877 0.0522l-0.80047 0.72657c-0.24812-0.12233-0.50846-0.21811-0.7767-0.28577l-0.11627-1.0687c-0.02082-0.0816-0.0448-0.16068-0.12816-0.17312z" fill="none" stroke-width=".20008px"/>
   <circle id="path2349" cx="86.435" cy="134.53" r="2.0789" fill="#979797" fill-rule="evenodd" stroke-width=".26458px"/>
  </g>
 </g>
</svg>
