<?xml version="1.0" encoding="UTF-8"?>
<!-- Created with Inkscape (http://www.inkscape.org/) -->
<svg width="160" height="160" version="1.1" viewBox="0 0 160 160" xml:space="preserve" xmlns="http://www.w3.org/2000/svg" xmlns:cc="http://creativecommons.org/ns#" xmlns:dc="http://purl.org/dc/elements/1.1/" xmlns:rdf="http://www.w3.org/1999/02/22-rdf-syntax-ns#"><metadata><rdf:RDF><cc:Work rdf:about=""><dc:format>image/svg+xml</dc:format><dc:type rdf:resource="http://purl.org/dc/dcmitype/StillImage"/><dc:title/></cc:Work></rdf:RDF></metadata><g transform="matrix(1.3333 0 0 -1.3333 0 160)"><g transform="matrix(.1 0 0 .1 15 0)"><path d="m422.23 0.51172c-146.96 8.1172-295.16 88.937-358.68 225.74-76.562 149.1-79.25 330.47-23.082 486.72 51.641 118.36 151.8 214.06 269.45 265.78 98.047 33.4 205.31 24.57 305.24 4.57 80.352-14.3 144.92-70 200.7-126.25 20.743-34.648 83.911-73.832 57.93-115.66-33.59-45.859-82.5-31.18-105.39 8.942-35.429 62.027-98.007 110.63-162.5 138.28-158.17 63.441-364.92 1.332-443.75-154.61-62.378-122.73-66.449-269.84-29.378-400.7 45.429-129.69 167.31-238.16 307.5-246.44 112.58-3.168 226.88 39.68 308.64 114.64 35.469 32.539 42.891 119.53 90.66 112.86 67.77-9.539 69.879-58.949 41.328-98.25-59.136-129.72-200.31-203.63-338.2-213.75-40.039-3.7891-80.32-3.707-120.47-1.8672zm32.34 355.15c-69.179 26.918-85.621 111.8-77.461 177.86 3.871 51.871 43.711 115.62 102.81 104.64 64.957-19.531 85.308-96.789 83.129-157.3-1.449-54.058-29.692-121.37-90.391-127.62-6.101-0.078-12.191 0.782-18.09 2.422z" fill="#9a4c34"/><g fill="none" stroke="#9a4c34" stroke-linecap="round" stroke-width="75"><path d="m235.23 976.52-67.96 117.7"/><path d="m664.77 976.52 67.96 117.7"/><path d="m450 1026.8v135.9"/></g></g></g></svg>
