<?xml version="1.0" encoding="UTF-8"?>
<!-- Created with Inkscape (http://www.inkscape.org/) -->
<svg id="svg8" width="122.64mm" height="53.267mm" version="1.1" viewBox="0 0 122.64 53.267" xmlns="http://www.w3.org/2000/svg" xmlns:cc="http://creativecommons.org/ns#" xmlns:dc="http://purl.org/dc/elements/1.1/" xmlns:rdf="http://www.w3.org/1999/02/22-rdf-syntax-ns#">
 <metadata id="metadata5">
  <rdf:RDF>
   <cc:Work rdf:about="">
    <dc:format>image/svg+xml</dc:format>
    <dc:type rdf:resource="http://purl.org/dc/dcmitype/StillImage"/>
    <dc:title/>
   </cc:Work>
  </rdf:RDF>
 </metadata>
 <g id="layer1" transform="translate(-60.823 -90.315)" fill="#efe5cc">
  <path id="path931" d="m155.68 143.55c-3.1-0.31221-4.5872-1.9615-4.7091-5.2223-0.0816-2.1824 0.51574-3.7304 2.5229-6.5386 2.2022-3.0809 3.3122-4.0626 5.1392-4.5453 1.3075-0.34543 3.8766-0.23299 7.9425 0.34763 2.2817 0.32582 3.3782 0.57823 4.7878 1.1021 0.89398 0.33223 0.83043 0.34859 1.2234-0.31489 0.43827-0.73992 0.67377-1.1025 0.86334-1.3293 0.10312-0.12336 0.63934-0.9754 1.1916-1.8934 0.55226-0.91803 1.0908-1.7834 1.1968-1.9231 0.29523-0.38916 0.81187-1.2791 1.1117-1.915 0.14846-0.31486 0.38682-0.7317 0.52967-0.92631 0.14286-0.19461 0.45257-0.68759 0.68823-1.0955 0.40414-0.69951 0.4285-0.76876 0.4285-1.2182 0-0.27385-0.037-0.51354-0.0871-0.56359-0.12409-0.12408-3.9109-0.12408-4.035 0-0.0638 0.0638-0.0871 0.66121-0.0871 2.2352s-0.0233 2.1714-0.0871 2.2352c-0.12465 0.12465-4.7812 0.12465-4.9058 0-0.0638-0.0638-0.0871-0.66121-0.0871-2.2352s-0.0233-2.1714-0.0871-2.2352c-0.12408-0.12408-3.9109-0.12408-4.035 0-0.0638 0.0638-0.0871 0.66121-0.0871 2.2352s-0.0233 2.1714-0.0871 2.2352c-0.12465 0.12465-4.7812 0.12465-4.9058 0-0.0638-0.0638-0.0871-0.66121-0.0871-2.2352s-0.0233-2.1714-0.0871-2.2352c-0.12408-0.12408-3.9109-0.12408-4.035 0-0.0638 0.0638-0.0871 0.66246-0.0871 2.2408 0 1.7399-0.0192 2.1697-0.0999 2.2366-0.0698 0.058-0.57684 0.077-1.6847 0.0633l-1.5848-0.0196-1.3088-1.5688c-0.71986-0.86285-1.766-2.1135-2.3248-2.7792s-1.1077-1.3313-1.2199-1.4792c-0.11214-0.14786-0.32417-0.39263-0.4712-0.54394-0.20714-0.21317-0.24497-0.28892-0.16806-0.33645 0.17619-0.1089 2.5413-0.67146 2.6196-0.62309 0.0416 0.0257 0.22717 0.30937 0.41229 0.63031 0.47767 0.82815 1.1024 1.6835 2.535 3.4709 2.2639 2.8245 2.2356 2.792 2.4517 2.8174 0.40704 0.0478 0.40812 0.0417 0.40933-2.3001 5.8e-4 -1.1826 0.0273-2.1914 0.0593-2.2418 0.0454-0.0716 0.59895-0.0875 2.5208-0.0726l2.4625 0.0191 0.0192 2.2073c0.0129 1.4808 0.0457 2.2392 0.0996 2.3041 0.11049 0.13313 3.907 0.14231 4.0395 0.01 0.0637-0.0637 0.0874-0.66168 0.0882-2.2316 5.8e-4 -1.1795 0.0273-2.1858 0.0593-2.2362 0.0454-0.0716 0.59895-0.0875 2.5207-0.0726l2.4625 0.0191 0.0192 2.2073c0.0129 1.4808 0.0457 2.2392 0.0996 2.3041 0.11048 0.13313 3.907 0.14231 4.0395 0.01 0.0638-0.0637 0.0874-0.66168 0.0882-2.2316 7.3e-4 -1.1795 0.0273-2.1858 0.0593-2.2362 0.0454-0.0716 0.59882-0.0875 2.52-0.0726l2.4618 0.0191 0.037 0.21173c0.0203 0.11645 0.0758 0.22464 0.12324 0.24042 0.10453 0.0348 0.61562-0.81397 1.1572-1.9217 0.27877-0.57022 0.43688-0.81643 0.52428-0.81643 0.20591 0 1.8318 0.21559 2.2418 0.29726 0.20955 0.0417 0.381 0.10939 0.381 0.15034 0 0.0409-0.39112 0.68361-0.86915 1.4281-1.7797 2.7718-2.1814 3.4015-2.577 4.0388-0.22295 0.35923-0.75788 1.2083-1.1887 1.8869-0.43087 0.67854-1.4954 2.3604-2.3657 3.7374-0.87028 1.377-1.7331 2.7397-1.9173 3.0282-0.18424 0.28848-0.48503 0.76201-0.66842 1.0523-0.18338 0.29028-0.53041 0.83802-0.77115 1.2172-0.24075 0.37919-0.87052 1.3752-1.3995 2.2134-1.4371 2.2772-1.7697 2.6939-2.5953 3.2519-0.5284 0.35711-1.1223 0.5748-1.7223 0.6313-0.81118 0.0764-1.9358-0.0462-2.7704-0.302-0.40614-0.12447-0.78319-0.20912-0.83791-0.18813-0.0675 0.0259-0.13861 0.33778-0.22136 0.97142-0.067 0.51328-0.18321 1.1618-0.25818 1.4412-0.50665 1.8882-1.533 3.0462-3.1534 3.5581-0.99793 0.31525-3.2616 0.51519-4.463 0.3942zm2.964-1.1238c2.0392-0.2563 3.0519-1.0679 3.6195-2.901 0.11177-0.36097 0.58507-3.5482 0.58507-3.94 0-0.0131 0.16803-0.20151 0.37339-0.41865 0.48024-0.50778 0.69603-0.5238 1.4128-0.10493 0.63621 0.37178 1.1056 0.50545 1.8229 0.51908 0.67905 0.0129 1.1783-0.17532 1.6903-0.63733 0.37396-0.3374 1.1058-1.4349 1.0724-1.6082-0.0131-0.068-0.14201-0.16239-0.28649-0.20972-0.48965-0.16044-6.0445-1.0563-6.7752-1.0927-0.81519-0.0406-1.3876 0.0684-2.0678 0.39354-0.44117 0.21092-1.3233 1.0548-2.0946 2.0037-0.92825 1.142-1.2051 1.7996-1.3202 3.1358-0.0621 0.72118-0.0867 0.81405-0.25419 0.96157-0.24241 0.21345-0.43121 0.2063-0.66258-0.0251l-0.18835-0.18834 0.0505-0.90917c0.068-1.2239 0.25691-1.8113 0.88463-2.7511 0.74573-1.1164 1.7349-2.2361 2.4313-2.7519 0.9116-0.67529 1.6786-0.897 3.2943-0.95227 1.6982-0.0581 3.2401 0.17835 6.5242 1.0005 0.63467 0.15888 1.1898 0.27486 1.2337 0.25773 0.0439-0.0171 0.27257-0.32081 0.50819-0.67485s0.55615-0.83291 0.71229-1.0641c0.15614-0.23124 0.27361-0.47111 0.26104-0.53304-0.0446-0.21955-1.4357-0.68408-2.9984-1.0013-2.0607-0.41824-5.9193-0.85425-7.6562-0.86511-2.2019-0.0138-3.0727 0.3334-4.4732 1.7834-1.151 1.1917-2.9944 3.7831-3.63 5.1031-0.58543 1.2157-0.70342 1.7293-0.70794 3.0816-3e-3 0.95953 0.0204 1.2089 0.16065 1.6969 0.34776 1.2098 0.77738 1.8156 1.5896 2.2414 1.1404 0.59786 2.6262 0.7348 4.8882 0.4505zm-25.749-10.675c-1.4052-0.12995-2.9114-0.66464-3.9402-1.3988-0.54001-0.38534-1.4155-1.2931-1.7456-1.8099-0.64718-1.0132-1.1474-2.3198-1.3949-3.6431-0.19463-1.041-0.19574-3.93-2e-3 -4.826 0.17911-0.82772 0.36301-1.4812 0.5457-1.939 1.1887-2.9789 3.3667-4.6216 6.5776-4.9609 1.9735-0.20854 3.9847 0.24686 5.5706 1.2614 0.54845 0.35084 1.3799 1.1482 1.7757 1.7029 0.32946 0.46169 0.51022 0.5492 0.46925 0.22717-0.0122-0.0958-0.0518-2.1498-0.0879-4.5646-0.0362-2.4148-0.0983-4.6355-0.13796-4.9349-0.0397-0.29936-0.0736-0.60144-0.0753-0.67129-3e-3 -0.11663 0.11009-0.127 1.3852-0.127h1.3884l-0.0493 0.27215c-0.2505 1.382-0.24796 23.546 3e-3 24.892l0.044 0.23585h-2.5565l6e-3 -0.92528c3e-3 -0.50891 0.0283-1.1968 0.0559-1.5286 0.06-0.72175 2e-3 -0.86469-0.22633-0.55855-1.1946 1.6014-2.3167 2.4608-3.8367 2.9388-1.0344 0.32528-2.5564 0.46974-3.7682 0.35768zm2.3034-2.103c2.6474-0.36002 4.6432-2.3727 5.2254-5.2694 0.18088-0.90003 0.18073-3.1499 0-4.0022-0.57875-2.7255-2.282-4.4994-4.8739-5.0759-0.70044-0.1558-2.2313-0.15381-2.9403 4e-3 -1.735 0.38568-3.2101 1.7227-3.9212 3.554-0.39881 1.0271-0.52986 1.8865-0.53382 3.5009-6e-3 2.4996 0.43379 4.164 1.4227 5.3829 0.37995 0.4683 1.1769 1.1294 1.6471 1.3663 1.0566 0.53234 2.5435 0.73423 3.9744 0.53964zm-29.526 1.7821c-0.0202-0.0202-0.0105-0.19168 0.0216-0.381 0.15819-0.93244 0.22189-4.3882 0.18492-10.032-0.0352-5.3663-0.0739-6.5697-0.23634-7.3479l-0.0417-0.19957h2.6346l-0.0171 1.7961c-0.0119 1.2516 7e-3 1.7961 0.0616 1.7961 0.0432 0 0.24315-0.25204 0.44425-0.56009 0.44455-0.681 1.3419-1.6345 1.9319-2.0529 1.2279-0.87074 2.6153-1.2719 4.3819-1.267 1.0356 3e-3 1.7442 0.1104 2.5776 0.39117 1.8417 0.62044 3.0381 1.9706 3.4729 3.9196 0.13844 0.62041 0.14975 1.0085 0.19894 6.8264 0.0287 3.3927 0.0705 6.2176 0.093 6.2774 0.0224 0.0599 0.0609 0.2803 0.0854 0.48985l0.0446 0.381h-2.8505l0.0379-0.30843c0.2352-1.9133 0.2516-11.853 0.0212-12.861-0.18724-0.81938-0.56005-1.5164-1.0879-2.034-0.75726-0.74251-1.6108-1.0504-2.9111-1.0501-1.682 4.3e-4 -2.8105 0.50262-4.1379 1.8413-1.0474 1.0563-1.6564 2.0056-2.0764 3.2363l-0.23524 0.68943-0.0303 3.0843c-0.0268 2.7319 0.0481 5.6479 0.17935 6.985l0.041 0.41728h-1.3758c-0.75666 0-1.3923-0.0166-1.4126-0.0368zm-31.266-0.17858c-3.092-0.26957-5.9865-1.4042-7.9576-3.1195-0.20858-0.1815-0.54367-0.47072-0.74464-0.6427-0.71226-0.60952-2.0367-2.4778-2.7114-3.8249-1.4515-2.898-2.1121-5.8877-2.1725-9.8324-0.0052-0.33824 0.15938-2.7176 0.2359-3.4109 0.44342-4.0176 2.1635-7.7872 4.7368-10.381 0.43738-0.44087 1.0113-0.95275 1.2753-1.1375 0.26406-0.18477 0.54542-0.39305 0.62524-0.46284 0.07983-0.0698 0.52886-0.32807 0.99786-0.57396s0.85272-0.47935 0.85272-0.5188c0-0.0395-0.07837-0.20816-0.17414-0.37493-0.25575-0.4453-1.7127-4.5032-1.7127-4.7703 0-0.87562 1.0157-1.2934 1.6175-0.66523 0.13872 0.14479 0.4278 0.83524 0.9956 2.3779 0.44007 1.1956 0.82035 2.3126 0.84507 2.4823 0.02579 0.17696 0.08415 0.30843 0.13692 0.30843 0.05058 0 0.57682-0.0844 1.1694-0.18752 0.5926-0.10313 1.2293-0.19778 1.4148-0.21033 0.53065-0.0359 0.78286-0.11104 0.86067-0.25642 0.04349-0.0813 0.07197-1.1021 0.07197-2.58 0-2.3252 0.0072-2.4571 0.14629-2.6822 0.15661-0.2534 0.52942-0.46986 0.80924-0.46986 0.27403 0 0.65496 0.24441 0.79872 0.51247 0.1209 0.22544 0.13261 0.46279 0.13261 2.6888 0 1.8662 0.02138 2.4586 0.09072 2.5139 0.04989 0.0398 0.40096 0.0937 0.78014 0.1198s1.1572 0.11804 1.7288 0.20438c0.89703 0.13548 1.0485 0.14265 1.1055 0.0524 0.0364-0.0575 0.41459-1.1496 0.8405-2.4269 0.70595-2.1171 0.79828-2.3463 1.0449-2.5944 0.2437-0.24514 0.30812-0.27215 0.6492-0.27215 0.3321 0 0.40828 0.0296 0.61967 0.24102 0.45765 0.45766 0.44922 0.51638-0.46095 3.2118-0.44582 1.3203-0.81058 2.4355-0.81058 2.4783s0.37961 0.26665 0.84359 0.49745c1.3092 0.65124 2.2357 1.3188 3.3209 2.3926 1.1874 1.1749 2.1037 2.6125 2.9159 4.5745 0.21429 0.51768 0.24364 0.64553 0.16439 0.71621-0.0899 0.0802-1.198 0.42725-2.572 0.8056-0.32375 0.0892-0.62588 0.13907-0.67142 0.11093-0.0455-0.0281-0.19933-0.34019-0.34177-0.69344-0.64806-1.6072-1.1898-2.4567-2.2603-3.5445-1.3629-1.385-3.1361-2.2992-5.0906-2.6246-0.75025-0.12491-2.2675-0.24816-2.6224-0.21303-0.1397 0.0138-0.62956 0.0601-1.0886 0.10286-1.8974 0.1767-3.607 0.77459-5.0182 1.7549-1.2254 0.85134-1.622 1.2346-2.6813 2.5914-1.2719 1.629-2.2515 4.2215-2.6492 7.0108-0.19421 1.3624-0.17363 5.082 0.03583 6.4736 0.29764 1.9774 0.82688 3.6579 1.6464 5.2279 1.6159 3.0956 4.3077 5.1712 7.5416 5.8152 0.79201 0.15772 2.3993 0.29307 2.9754 0.25056 2.001-0.14763 3.5985-0.52314 4.7727-1.1218 0.70787-0.36094 1.8084-1.1765 2.4406-1.8088 1.2853-1.2853 1.9781-2.5869 2.4451-4.594 0.073-0.3138 0.17772-0.58779 0.23267-0.60887 0.0549-0.0211 0.28488 8e-4 0.51096 0.0486 0.41974 0.0888 2.7359 0.6463 2.8922 0.69614 0.16955 0.0541-0.436 1.8741-1.0684 3.2112-0.88165 1.864-2.3733 3.6017-4.0668 4.7375-1.8116 1.2151-3.6927 1.9245-6.0545 2.2834-0.86248 0.13109-3.4183 0.19561-4.3906 0.11084zm19.993-1.3347c-1.5265-0.20841-1.6707-0.24029-1.6876-0.37303-0.0244-0.19148 0.38264-3.2186 0.44055-3.2766 0.0598-0.0598 3.5521 0.40102 3.6307 0.47906 0.0495 0.0491-0.1861 2.1559-0.35545 3.1785-0.0472 0.28489 0.12167 0.28556-2.0282-8e-3zm1.1249-8.9636c-0.73842-0.10483-1.3802-0.21501-1.4261-0.24486-0.0615-0.04-0.0475-0.19293 0.0531-0.58057 0.28216-1.0867 0.51799-2.5191 1.0126-6.1506 1.038-7.6206 1.5932-12.194 1.6513-13.602 0.0304-0.7368 0.0744-1.3588 0.0978-1.3821 0.0434-0.0434 3.329 0.37331 3.385 0.42933 0.017 0.017-0.0518 0.38402-0.15292 0.81565-0.28345 1.2104-0.29865 1.3076-0.91941 5.8783-1.0952 8.0643-1.7419 13.346-1.7419 14.229l-5e-5 0.81643-0.30843-9e-3c-0.16964-5e-3 -0.91259-0.0947-1.651-0.19957zm-20.073-2.2311c-1.0378-0.31627-1.8877-1.4672-2.3693-3.2082-0.1321-0.47758-0.15408-0.75365-0.15408-1.9359 0-1.1945 0.02128-1.4565 0.15917-1.9594 0.63925-2.3317 2.1428-3.4587 3.6257-2.7177 1.0889 0.54413 1.8831 1.9613 2.1623 3.8584 0.51102 3.4728-1.2918 6.6125-3.4237 5.9628z" fill="#efe5cc" stroke-width=".072571"/>
 </g>
</svg>
