<?xml version="1.0" encoding="UTF-8"?>
<!-- Created with Inkscape (http://www.inkscape.org/) -->
<svg id="svg8" width="23.865" height="27.81" version="1.1" viewBox="0 0 6.3143 7.3581" xmlns="http://www.w3.org/2000/svg" xmlns:cc="http://creativecommons.org/ns#" xmlns:dc="http://purl.org/dc/elements/1.1/" xmlns:rdf="http://www.w3.org/1999/02/22-rdf-syntax-ns#">
 <metadata id="metadata5">
  <rdf:RDF>
   <cc:Work rdf:about="">
    <dc:format>image/svg+xml</dc:format>
    <dc:type rdf:resource="http://purl.org/dc/dcmitype/StillImage"/>
    <dc:title/>
   </cc:Work>
  </rdf:RDF>
 </metadata>
 <g id="layer1" transform="translate(-81.952 -134.33)">
  <g id="text831" transform="matrix(1.1429 0 0 1.1429 -14.105 -20.454)" fill="#3c5ab0" aria-label="~">
   <g id="g854" fill="#3c5ab0">
    <path id="path824" transform="matrix(.87498 0 0 .87498 12.342 17.897)" d="m85.108 134.33a3.1571 3.1571 0 0 0-3.1569 3.1574 3.1571 3.1571 0 0 0 3.1569 3.1569 3.1571 3.1571 0 0 0 3.1574-3.1569 3.1571 3.1571 0 0 0-3.1574-3.1574zm0 1.2862a1.8709 1.8709 0 0 1 1.8712 1.8712 1.8709 1.8709 0 0 1-1.8712 1.8707 1.8709 1.8709 0 0 1-1.8707-1.8707 1.8709 1.8709 0 0 1 1.8707-1.8712z" fill-rule="evenodd"/>
    <path id="path837" d="m89.573 140.58v0.75654c-0.32421 0.2495-0.70726 0.45499-1.1257 0.46106-0.39214 0.0177-0.7555-0.15214-1.1128-0.28919-0.31091-0.11459-0.65773-0.18819-0.98193-0.0826-0.28293 0.0847-0.53094 0.25538-0.75456 0.44401v-0.75654c0.34428-0.26358 0.75781-0.47546 1.2022-0.46181 0.39624 3e-3 0.75325 0.19202 1.1192 0.3182 0.29464 0.10327 0.62205 0.15074 0.92368 0.0471 0.2731-0.0868 0.50989-0.25804 0.7299-0.43683z" stroke-width=".26458px"/>
   </g>
  </g>
 </g>
</svg>
