<?xml version="1.0" encoding="UTF-8"?>
<svg class="icon" width="100" height="100" fill="currentColor" overflow="hidden" p-id="1804" version="1.1" viewBox="0 0 100 100" xmlns="http://www.w3.org/2000/svg" xmlns:cc="http://creativecommons.org/ns#" xmlns:dc="http://purl.org/dc/elements/1.1/" xmlns:rdf="http://www.w3.org/1999/02/22-rdf-syntax-ns#">
 <metadata>
  <rdf:RDF>
   <cc:Work rdf:about="">
    <dc:format>image/svg+xml</dc:format>
    <dc:type rdf:resource="http://purl.org/dc/dcmitype/StillImage"/>
    <dc:title/>
   </cc:Work>
  </rdf:RDF>
 </metadata>
 <path d="m76.355 61.471c-6.6626 0-12.483 3.5412-15.825 8.8353l-20.161-11.687c1.2976-2.5945 2.1039-5.4931 2.1039-8.6135 0-1.9282-0.36216-3.7397-0.88773-5.4931l20.978-12.166c3.5412 3.9391 8.5435 6.1941 13.791 6.1941 10.402 0 18.829-8.5551 18.829-19.108-0.012638-10.565-8.4394-19.12-18.829-19.12-10.402 0-18.829 8.5551-18.829 19.109 0 1.9285 0.36283 3.74 0.88839 5.4931l-20.979 12.167c-3.5416-3.9391-8.5435-6.1827-13.791-6.1944-10.401 0-18.828 8.5551-18.828 19.109s8.4274 19.109 18.828 19.109c4.2892 0 8.205-1.5077 11.372-3.9624l-0.07037 0.14006 22.79 13.231c-0.07037 0.68897-0.21043 1.3553-0.21043 2.0689 0 10.553 8.4264 19.108 18.828 19.108 10.402 0 18.829-8.5551 18.829-19.108-0.012633-10.554-8.4394-19.11-18.829-19.11zm0-53.516c4.0325 0 7.7601 2.1856 9.7823 5.7385 2.0219 3.5526 2.0219 7.9242 0 11.465-2.0222 3.5529-5.7499 5.7385-9.7823 5.7385-6.2418 0-11.29-5.1309-11.29-11.465-0.012037-6.3465 5.0482-11.477 11.29-11.477zm-52.71 53.516c-4.0321 0-7.7604-2.1856-9.7823-5.7382-2.0219-3.5529-2.0219-7.9242 0-11.465 2.0219-3.5526 5.7502-5.7385 9.7823-5.7385 6.2414 0 11.29 5.1306 11.29 11.465 2.94e-4 6.3468-5.0489 11.477-11.29 11.477zm52.71 30.586c-4.0325 0-7.7604-2.1856-9.7823-5.7385-2.0219-3.5522-2.0219-7.9238 0-11.465 2.0219-3.5522 5.7499-5.7382 9.7823-5.7382 6.2411 0 11.29 5.1306 11.29 11.465 2.89e-4 6.3341-5.0489 11.477-11.29 11.477z" fill="#ad9b96" p-id="1805"/>
</svg>
