<?xml version="1.0" encoding="UTF-8"?>
<!-- Created with Inkscape (http://www.inkscape.org/) -->
<svg id="svg8" width="26.165mm" height="24.96mm" version="1.1" viewBox="0 0 26.165 24.96" xmlns="http://www.w3.org/2000/svg" xmlns:cc="http://creativecommons.org/ns#" xmlns:dc="http://purl.org/dc/elements/1.1/" xmlns:rdf="http://www.w3.org/1999/02/22-rdf-syntax-ns#">
 <metadata id="metadata5">
  <rdf:RDF>
   <cc:Work rdf:about="">
    <dc:format>image/svg+xml</dc:format>
    <dc:type rdf:resource="http://purl.org/dc/dcmitype/StillImage"/>
    <dc:title/>
   </cc:Work>
  </rdf:RDF>
 </metadata>
 <g id="g2070" transform="matrix(1.2669 0 0 1.2669 -117.26 -135.04)" fill="none" stroke="#9a4d34" stroke-linecap="square" stroke-linejoin="round" stroke-width="1.5875">
  <path id="path861" d="m107.22 116.45a4.3417 4.3417 0 0 1-4.3417 4.3417 4.3417 4.3417 0 0 1-4.3417-4.3417 4.3417 4.3417 0 0 1 4.3417-4.3417 4.3417 4.3417 0 0 1 4.3417 4.3417z"/>
  <path id="path5757" d="m108.45 119.35c5.3974 3.1195-4.9776 9.6385-5.3801 3.4174m0.0599-4e-3c0.40244 6.2211-10.981 0.30125-5.6669-2.9588m0.03138 0.0511c-5.3139 3.26-5.6501-9.5119-0.25584-6.3872m-0.03004 0.0519c-5.3943-3.1247 4.9439-9.6201 5.3883-3.4018m-0.0598 4e-3c-0.44439-6.2183 10.948-0.31634 5.6567 2.9794m-0.0318-0.051c5.2917-3.2958 5.9362 8.9413 0.25708 6.3703"/>
 </g>
</svg>
