<?xml version="1.0" encoding="UTF-8"?>
<!-- Created with Inkscape (http://www.inkscape.org/) -->
<svg id="svg8" width="16.904mm" height="16.221mm" version="1.1" viewBox="0 0 16.904 16.221" xmlns="http://www.w3.org/2000/svg" xmlns:cc="http://creativecommons.org/ns#" xmlns:dc="http://purl.org/dc/elements/1.1/" xmlns:rdf="http://www.w3.org/1999/02/22-rdf-syntax-ns#">
 <metadata id="metadata5">
  <rdf:RDF>
   <cc:Work rdf:about="">
    <dc:format>image/svg+xml</dc:format>
    <dc:type rdf:resource="http://purl.org/dc/dcmitype/StillImage"/>
    <dc:title/>
   </cc:Work>
  </rdf:RDF>
 </metadata>
 <g id="layer1" transform="translate(-92.987 -97.488)">
  <path id="path815" transform="scale(1,-1)" d="m101.44-97.885c-1.5593 0-1.8064-3.2793-3.0679-4.1958-1.2615-0.91656-4.4567-0.13815-4.9385-1.6212-0.48186-1.483 2.5606-2.7313 3.0424-4.2143s-1.2458-4.2812 0.01574-5.1978 3.3889 1.5912 4.9482 1.5912c1.5593 0 3.6867-2.5078 4.9482-1.5912 1.2615 0.91656-0.46612 3.7148 0.0157 5.1978 0.48186 1.483 3.5243 2.7313 3.0424 4.2143-0.48186 1.483-3.677 0.70462-4.9385 1.6212-1.2615 0.91655-1.5086 4.1958-3.0679 4.1958z" fill="none" opacity=".98" stroke="#9a4d34" stroke-linecap="square" stroke-linejoin="round" stroke-width=".79375"/>
 </g>
</svg>
