<?xml version="1.0" encoding="UTF-8"?>
<!-- Created with Inkscape (http://www.inkscape.org/) -->
<svg width="7.2675mm" height="4.277mm" version="1.1" viewBox="0 0 7.2675 4.277" xmlns="http://www.w3.org/2000/svg" xmlns:cc="http://creativecommons.org/ns#" xmlns:dc="http://purl.org/dc/elements/1.1/" xmlns:rdf="http://www.w3.org/1999/02/22-rdf-syntax-ns#">
 <metadata>
  <rdf:RDF>
   <cc:Work rdf:about="">
    <dc:format>image/svg+xml</dc:format>
    <dc:type rdf:resource="http://purl.org/dc/dcmitype/StillImage"/>
    <dc:title/>
   </cc:Work>
  </rdf:RDF>
 </metadata>
 <g transform="translate(-3.1292e-7 -.078658)">
  <rect x=".088711" y=".16737" width="7.0901" height="4.0996" rx=".020116" ry=".020116" fill="#c4a243" fill-opacity=".50196" stroke="#657b83" stroke-linecap="round" stroke-linejoin="round" stroke-opacity=".94118" stroke-width=".17742"/>
  <rect transform="scale(-1,1)" x="-7.1375" y=".27048" width="3.1992" height="1.5525" rx=".0090766" ry=".0076182" fill="#c4a243" fill-opacity=".75294"/>
  <path d="m7.1375 1.8205h-3.1992v-1.5525" fill="none" stroke="#657b83" stroke-linejoin="round" stroke-width=".22913"/>
  <g transform="translate(-88.615 -152.04)" aria-label="TAB">
   <g stroke-width=".15068px">
    <path d="m89.283 152.55h0.92923v0.12508h-0.38994v0.97337h-0.14935v-0.97337h-0.38994z"/>
    <path d="m90.606 152.7-0.20159 0.54665h0.40392zm-0.08387-0.14641h0.16848l0.41863 1.0984h-0.1545l-0.10006-0.28179h-0.49515l-0.10006 0.28179h-0.15671z"/>
    <path d="m91.417 153.13v0.40244h0.23838q0.11992 0 0.17731-0.0493 0.05812-0.05 0.05812-0.15229 0-0.10301-0.05812-0.15157-0.05739-0.0493-0.17731-0.0493zm0-0.45174v0.33108h0.21998q0.10889 0 0.16186-0.0405 0.05371-0.0412 0.05371-0.12508 0-0.0831-0.05371-0.12434-0.05297-0.0412-0.16186-0.0412zm-0.14862-0.12213h0.37964q0.16995 0 0.26192 0.0706t0.09197 0.20086q0 0.10079-0.04709 0.16039t-0.13832 0.0743q0.10962 0.0236 0.16995 0.0986 0.06106 0.0743 0.06106 0.18614 0 0.14715-0.10006 0.22734-0.10006 0.0802-0.28473 0.0802h-0.39435z"/>
   </g>
  </g>
 </g>
</svg>
