<?xml version="1.0" encoding="UTF-8"?>
<!-- Created with Inkscape (http://www.inkscape.org/) -->
<svg id="svg4605" width="14.128mm" height="14.123mm" version="1.1" viewBox="0 0 14.128 14.123" xmlns="http://www.w3.org/2000/svg" xmlns:cc="http://creativecommons.org/ns#" xmlns:dc="http://purl.org/dc/elements/1.1/" xmlns:rdf="http://www.w3.org/1999/02/22-rdf-syntax-ns#">
 <metadata id="metadata4602">
  <rdf:RDF>
   <cc:Work rdf:about="">
    <dc:format>image/svg+xml</dc:format>
    <dc:type rdf:resource="http://purl.org/dc/dcmitype/StillImage"/>
    <dc:title/>
   </cc:Work>
  </rdf:RDF>
 </metadata>
 <g id="layer1" transform="translate(-73.752 -112.95)">
  <g id="g5224" transform="rotate(-35.458 80.816 120.01)" fill="none" stroke="#9a4c34" stroke-linecap="round" stroke-linejoin="round" stroke-width="1.3229">
   <path id="rect5153" d="m81.436 118.9c0.72307 0.43762 1.1992 1.1951 1.1992 2.0597 0 0.86458-0.47614 1.6221-1.1992 2.0597-0.41524 0.25131-0.91192 0.39712-1.4466 0.39712h-4.5357c-1.4658 0-2.6458-1.0958-2.6458-2.4568 0-1.3611 1.18-2.4568 2.6458-2.4568" opacity=".98"/>
   <path id="rect5153-8" d="m80.196 121.13c-0.72307-0.43762-1.1992-1.1951-1.1992-2.0597 0-0.86458 0.47615-1.6221 1.1992-2.0597 0.41524-0.25131 0.91192-0.39712 1.4466-0.39712h4.5357c1.4658 0 2.6458 1.0958 2.6458 2.4568 0 1.3611-1.18 2.4568-2.6458 2.4568" opacity=".98"/>
  </g>
 </g>
</svg>
