<?xml version="1.0" standalone="no"?><!DOCTYPE svg PUBLIC "-//W3C//DTD SVG 1.1//EN" "http://www.w3.org/Graphics/SVG/1.1/DTD/svg11.dtd"><svg t="1563417856179" class="icon" viewBox="0 0 1024 1024" version="1.1" xmlns="http://www.w3.org/2000/svg" p-id="1387" xmlns:xlink="http://www.w3.org/1999/xlink" width="200" height="200"><defs><style type="text/css"></style></defs><path d="M512 512m-512 0a512 512 0 1 0 1024 0 512 512 0 1 0-1024 0Z" fill="#F0F0F0" p-id="1388"></path><path d="M489.74 512H1024c0-46.212-6.16-90.98-17.638-133.566H489.74V512zM489.74 244.87h459.112a514.7 514.7 0 0 0-118.14-133.566H489.74v133.566zM512 1024c120.498 0 231.252-41.648 318.712-111.304H193.288C280.748 982.352 391.502 1024 512 1024zM75.148 779.13h873.704a508.948 508.948 0 0 0 57.51-133.566H17.638a508.948 508.948 0 0 0 57.51 133.566z" fill="#D80027" p-id="1389"></path><path d="M237.168 79.956h46.658l-43.4 31.53 16.578 51.018-43.398-31.53-43.398 31.53 14.32-44.074a514.814 514.814 0 0 0-99.304 110.674h14.95l-27.626 20.07a511.16 511.16 0 0 0-12.388 21.876l13.192 40.602-24.612-17.882a507.134 507.134 0 0 0-16.744 39.746l14.534 44.736h53.644l-43.4 31.53 16.578 51.018-43.398-31.53-25.996 18.888A516.936 516.936 0 0 0 0 512h512V0c-101.144 0-195.43 29.34-274.832 79.956z m19.836 380.844l-43.398-31.53L170.208 460.8l16.578-51.018-43.4-31.53h53.644l16.576-51.018 16.576 51.018h53.644l-43.4 31.53 16.578 51.018z m-16.578-200.166l16.578 51.018-43.398-31.53-43.398 31.53 16.578-51.018-43.4-31.53h53.644l16.576-51.018 16.576 51.018h53.644l-43.4 31.53zM440.656 460.8l-43.398-31.53L353.86 460.8l16.578-51.018-43.4-31.53h53.644l16.576-51.018 16.576 51.018h53.644l-43.4 31.53 16.578 51.018z m-16.578-200.166l16.578 51.018-43.398-31.53-43.398 31.53 16.578-51.018-43.4-31.53h53.644l16.576-51.018 16.576 51.018h53.644l-43.4 31.53z m0-149.148l16.578 51.018-43.398-31.53-43.398 31.53 16.578-51.018-43.4-31.53h53.644l16.576-51.018 16.576 51.018h53.644l-43.4 31.53z" fill="#0052B4" p-id="1390"></path></svg>